<svg width="69" height="69" viewBox="0 0 69 69" fill="none" xmlns="http://www.w3.org/2000/svg">
<g clip-path="url(#clip0_342_1213)">
<path d="M34.5 69C53.5538 69 69 53.5538 69 34.5C69 15.4462 53.5538 0 34.5 0C15.4462 0 0 15.4462 0 34.5C0 53.5538 15.4462 69 34.5 69Z" fill="#4F6DB8"/>
<path d="M33.1776 31.3764H26.4304C26.3404 30.6837 26.156 30.0585 25.8771 29.5007C25.5982 28.9429 25.2294 28.4661 24.7706 28.0703C24.3118 27.6745 23.7675 27.3731 23.1378 27.1662C22.517 26.9503 21.8288 26.8423 21.0732 26.8423C19.7327 26.8423 18.5767 27.1707 17.6051 27.8274C16.6425 28.4841 15.9003 29.4332 15.3786 30.6747C14.8658 31.9162 14.6094 33.4186 14.6094 35.1818C14.6094 37.017 14.8703 38.5554 15.392 39.7969C15.9228 41.0294 16.665 41.9605 17.6186 42.5902C18.5812 43.2109 19.7192 43.5213 21.0327 43.5213C21.7704 43.5213 22.4406 43.4268 23.0433 43.2379C23.6551 43.049 24.1903 42.7746 24.6491 42.4148C25.117 42.0459 25.4993 41.6006 25.7962 41.0788C26.102 40.5481 26.3134 39.9498 26.4304 39.2841L33.1776 39.3246C33.0606 40.5481 32.7053 41.7536 32.1115 42.9411C31.5268 44.1286 30.7216 45.2126 29.696 46.1932C28.6705 47.1648 27.42 47.9384 25.9446 48.5142C24.4782 49.09 22.7959 49.3778 20.8977 49.3778C18.3968 49.3778 16.1567 48.8291 14.1776 47.7315C12.2074 46.625 10.651 45.0147 9.50852 42.9006C8.366 40.7865 7.79474 38.2135 7.79474 35.1818C7.79474 32.1411 8.375 29.5637 9.53551 27.4496C10.696 25.3355 12.2659 23.7296 14.245 22.6321C16.2242 21.5346 18.4418 20.9858 20.8977 20.9858C22.571 20.9858 24.1184 21.2197 25.5398 21.6875C26.9612 22.1463 28.2116 22.821 29.2912 23.7116C30.3707 24.5933 31.2479 25.6773 31.9226 26.9638C32.5973 28.2502 33.0156 29.7211 33.1776 31.3764ZM35.6234 21.3636H43.0858L48.9288 32.9283H49.1717L55.0147 21.3636H62.4771L52.3699 39.7699V49H45.7306V39.7699L35.6234 21.3636Z" fill="white"/>
</g>
<defs>
<clipPath id="clip0_342_1213">
<rect width="69" height="69" fill="white"/>
</clipPath>
</defs>
</svg>
